<?xml version="1.0" encoding="UTF-8"?>
<svg id="Layer_1" data-name="Layer 1" xmlns="http://www.w3.org/2000/svg" viewBox="0 0 1920 1920">
  <defs>
    <style>
      .cls-1 {
        fill: #5d2fa5;
      }

      .cls-2 {
        fill: #ffe252;
      }
    </style>
  </defs>
  <g>
    <path class="cls-1" d="M574.05,1287.15h-26.4c-1.45,0-2.64,1.15-2.64,2.57v49.6c0,1.46,1.18,2.64,2.64,2.64h26.4c1.5,0,2.64-1.14,2.64-2.64v-7.36c0-1.46-1.18-2.64-2.64-2.64h-16.4v-8.48h14.69c1.44,0,2.56-1.13,2.56-2.56v-7.44c0-1.44-1.13-2.56-2.56-2.56h-14.69v-8.48h16.4c1.46,0,2.64-1.18,2.64-2.64v-7.44c0-1.44-1.16-2.57-2.64-2.57Z"/>
    <path class="cls-1" d="M639.95,1294.32c-4.63-4.62-10.73-7.17-17.18-7.17h-18.52c-1.5,0-2.64,1.14-2.64,2.64v49.53c0,1.5,1.13,2.64,2.64,2.64h18.52c6.46,0,12.56-2.55,17.18-7.17,4.62-4.62,7.17-10.72,7.17-17.18v-6.1c0-6.46-2.54-12.56-7.17-17.18h0ZM622.77,1329.32h-8.52v-29.53h8.52c3.08,0,6.01,1.23,8.26,3.48,2.22,2.16,3.45,5.08,3.45,8.24v6.1c0,3.15-1.23,6.08-3.46,8.25-2.24,2.24-5.16,3.46-8.25,3.46Z"/>
    <path class="cls-1" d="M711.79,1287.15h-7.51c-1.44,0-2.56,1.16-2.56,2.64v30.86c0,2.46-.97,4.78-2.72,6.54-3.46,3.46-9.54,3.52-12.93,0-1.75-1.75-2.72-4.08-2.72-6.54v-30.86c0-1.53-1.14-2.64-2.71-2.64h-7.44c-1.5,0-2.64,1.14-2.64,2.64v30.86c0,5.8,2.28,11.32,6.42,15.55,4.13,4.13,9.77,6.5,15.47,6.5s11.36-2.31,15.56-6.51c4.14-4.22,6.42-9.74,6.42-15.54v-30.86c0-1.46-1.18-2.64-2.64-2.64Z"/>
    <path class="cls-1" d="M765.54,1308.23c2.26-2.64,4.52-5.3,6.77-7.96,2.48-2.93,4.96-5.86,7.49-8.81.64-.8.76-1.9.3-2.82-.48-.95-1.33-1.5-2.34-1.5h-9.67c-.69,0-1.41.32-2.01.94l-15.87,18.77v-17.07c0-1.41-1.18-2.56-2.64-2.56h-7.43c-1.44,0-2.56,1.13-2.56,2.56v49.53c0,1.48,1.13,2.64,2.56,2.64h7.43c1.46,0,2.64-1.18,2.64-2.64v-12.57c0-.37.09-.49.27-.68l6.42-7.66c3.39,5.69,6.77,11.39,10.16,17.15l3.05,5.13c.47.79,1.3,1.27,2.22,1.27h8.55c.98,0,1.81-.46,2.34-1.35.44-.87.42-1.81-.04-2.58l-17.64-29.79Z"/>
    <path class="cls-1" d="M809.6,1287.15h7.44c1.46,0,2.64,1.18,2.64,2.64v49.53c0,1.46-1.18,2.64-2.64,2.64h-7.43c-1.46,0-2.64-1.18-2.64-2.64v-49.53c0-1.46,1.18-2.64,2.64-2.64Z"/>
    <path class="cls-1" d="M882.94,1294.32c-4.63-4.62-10.73-7.17-17.18-7.17h-18.52c-1.5,0-2.64,1.14-2.64,2.64v49.53c0,1.5,1.13,2.64,2.64,2.64h18.52c6.46,0,12.56-2.55,17.18-7.17,4.62-4.62,7.17-10.72,7.17-17.18v-6.1c0-6.46-2.54-12.56-7.17-17.18h0ZM865.75,1329.32h-8.52v-29.53h8.52c3.08,0,6.01,1.23,8.26,3.48,2.22,2.16,3.45,5.08,3.45,8.24v6.1c0,3.15-1.23,6.08-3.46,8.25-2.24,2.24-5.16,3.46-8.25,3.46Z"/>
    <path class="cls-1" d="M938.41,1286.41c-2.29-.24-4.64-.16-7.03.24-2.46.49-4.73,1.38-6.83,2.67-4.06,2.77-6.41,6.65-6.98,11.52-1.47,11.38,6.61,15.49,14.4,19.46l.89.46c2.19,1.12,6.76,3.46,6.71,5.76,0,.77-.18,1.36-.53,1.74-.59.64-1.72,1.14-3.11,1.37-1.63.3-3.61.18-5.72-.35-2.18-.58-4.14-1.63-5.63-2.99-.81-.82-2.16-.97-3.27-.34l-6.32,4.05c-.52.21-1.19.71-1.43,1.9-.14.72.05,1.47.61,2.22,3.21,3.67,7.77,6.41,12.81,7.71,2.37.62,4.74.93,7.01.93,1.45,0,2.86-.13,4.2-.38,4.23-.7,7.79-2.52,10.29-5.25,2.54-2.7,3.93-6.3,4.02-10.44.16-10.2-6.92-13.92-14.67-17.98l-.65-.32c-2.3-1.13-7.08-3.47-6.78-5.96.08-.71.36-1.69,1.19-2.24.7-.41,1.42-.67,2.26-.81.9-.18,1.93-.2,3.08-.05,1.92.21,3.73.9,5.09,1.94.99.81,2.3.83,3.1.15l6.62-4.36c.69-.52,1.07-1.23,1.05-1.76.17-.99-.23-1.67-.64-2.2-3.27-3.57-8.26-6-13.74-6.69Z"/>
    <path class="cls-1" d="M1035.48,1303.77c2.86-2.86,6.66-4.43,10.7-4.43,2.01,0,3.99.39,5.83,1.14.78.36,1.52.69,2.27,1.21,1.13.64,2.51.41,3.22-.45l5.36-5.38c.73-.55,1.07-1.44.92-2.06,0-.78-.41-1.57-1.11-2.1-1.93-1.34-3.79-2.39-5.69-3.19-3.42-1.4-7.05-2.11-10.78-2.11-7.43,0-14.48,2.91-19.86,8.2l-.41.48h0c-5.09,5.23-7.88,12.12-7.88,19.47s2.79,14.23,7.88,19.46l.41.49c5.37,5.29,12.42,8.2,19.85,8.2,3.73,0,7.36-.71,10.8-2.12,1.89-.8,3.75-1.84,5.72-3.22.66-.5,1.07-1.29,1.04-1.79.18-.89-.16-1.79-.75-2.21l-5.42-5.41c-.79-.95-2.18-1.17-3.41-.47-.68.47-1.39.85-2.11,1.12-5.71,2.33-12.3,1.01-16.58-3.27l-.4-.4h-.05c-2.53-2.8-3.98-6.55-3.98-10.38s1.45-7.57,3.98-10.38l.45-.4Z"/>
    <path class="cls-1" d="M1116.24,1287.15h-26.4c-1.45,0-2.64,1.15-2.64,2.57v49.6c0,1.46,1.18,2.64,2.64,2.64h26.4c1.5,0,2.64-1.14,2.64-2.64v-7.36c0-1.46-1.18-2.64-2.64-2.64h-16.4v-8.48h14.69c1.44,0,2.56-1.13,2.56-2.56v-7.44c0-1.44-1.13-2.56-2.56-2.56h-14.69v-8.48h16.4c1.46,0,2.64-1.18,2.64-2.64v-7.44c0-1.44-1.16-2.57-2.64-2.57Z"/>
    <path class="cls-1" d="M1189.13,1287.22h-7.44c-1.42,0-2.56,1.19-2.56,2.64v30.16l-20.13-31.61c-.47-.79-1.3-1.27-2.23-1.26l-9.58.07c-1.43,0-2.64,1.21-2.64,2.64v49.45c0,1.41,1.18,2.56,2.64,2.56h7.44c1.44,0,2.56-1.13,2.56-2.56v-30.23l20.13,31.61c.47.79,1.3,1.27,2.23,1.26l9.58-.07c1.45,0,2.64-1.15,2.64-2.56v-49.45c0-1.43-1.21-2.64-2.64-2.64Z"/>
    <path class="cls-1" d="M1253.39,1287.15h-35.62c-1.44,0-2.56,1.16-2.56,2.64v7.36c0,1.46,1.15,2.64,2.56,2.64h11.56v39.53c0,1.48,1.13,2.64,2.56,2.64h7.44c1.44,0,2.56-1.16,2.56-2.64v-39.53h11.49c1.46,0,2.64-1.18,2.64-2.64v-7.36c0-1.5-1.14-2.64-2.64-2.64Z"/>
    <path class="cls-1" d="M1322.52,1307.04c0-10.97-8.92-19.89-19.89-19.89h-20.6c-1.44,0-2.56,1.16-2.56,2.64v49.53c0,1.48,1.13,2.64,2.56,2.64h7.51c1.44,0,2.56-1.16,2.56-2.64v-12.38h7.88l8.19,13.91c.74.91,1.6,1.11,2.19,1.11h8.63c.97,0,1.82-.53,2.22-1.34.48-.8.48-1.8,0-2.59l-8.25-14.02c6.34-4.22,9.56-9.92,9.56-16.96ZM1309.81,1307.04c0,4.02-3.15,7.18-7.18,7.18h-10.52v-14.43h10.52c3.96,0,7.18,3.25,7.18,7.25Z"/>
    <path class="cls-1" d="M1374.99,1299.79c1.46,0,2.64-1.18,2.64-2.64v-7.44c0-1.44-1.16-2.57-2.64-2.57h-26.4c-1.45,0-2.64,1.15-2.64,2.57v49.6c0,1.46,1.18,2.64,2.64,2.64h26.4c1.5,0,2.64-1.14,2.64-2.64v-7.36c0-1.46-1.18-2.64-2.64-2.64h-16.4v-8.48h14.69c1.44,0,2.56-1.13,2.56-2.56v-7.44c0-1.44-1.13-2.56-2.56-2.56h-14.69v-8.48h16.4Z"/>
  </g>
  <g>
    <path class="cls-1" d="M394.86,1150.48l.47-.52c10.73-11.96,30.8-18.68,44.14-9.73,24.37,16.35,52.7,27.09,81.33,32.13,6.92,1.22,17.71,3.95,26.17.98,10.32-3.62,6.52-12.49,1.07-17.88-7.4-7.32-37.14-15.67-46.28-18.8-59.34-20.34-120.37-56.54-119.29-118.97v-.92c-1-63.27,56.83-115.94,119.72-101.25,39.78,9.29,59.83,31.92,89.08,58.26,15.15,13.64,22.29,33.83,12.64,51.78l-.95,1.77c-10.34,19.24-32.42,23.93-51.73,13.72-14.86-7.86-27.79-19.68-51.42-35.58-14.36-9.66-30.82,3.4-30.92,20.28v1.09c4.23,27.05,44.85,45.93,64.5,53.17,42.96,15.83,115.93,35.18,104.43,92.85v.64c-11.68,60.88-73.05,64.85-125.02,58.61-30.23-3.63-67.28-11.59-107.43-30.6-19.67-9.31-25.02-34.83-10.48-51.02Z"/>
    <path class="cls-1" d="M655.81,1162.99c0-35,0-51.55,0-91.48,0-23.77,21.32-41.68,44.8-37.93.59.09,1.19.19,1.78.27,19.18,2.84,33.64,18.83,33.64,38.21,0,30.09,0,45.06,0,75.15,0,29.63,14.18,41.79,32.51,37.52,21.87-5.1,33.88-22.55,33.78-44.23,0-31.57,0-63.13,0-94.7,0-16.88,10.75-31.89,26.74-37.31l.8-.27c25.65-8.71,52.26,10.36,52.26,37.45,0,48.97,0,97.94,0,146.91,0,22.62-18.11,41.08-40.73,41.5,0,0-39.06,2.04-39.06-23.07h0c-17.46,21.59-42.72,26.85-68.4,26.97-31.9.15-78.61-32.35-78.11-75Z"/>
    <path class="cls-1" d="M1152.32,927.53c-.25,0-.49.01-.74.02-21.31.56-40.87,18.02-40.87,39.34v.03c10.97,68.59,11.86,138.42,2.66,207.27l-2.59,19.38c0,21.73,20.22,39.34,41.95,39.34h0c21.72,0,39.33-17.6,39.35-39.32,0,0,1.35-8.35-.49-20.66-9.97-66.73-9.19-134.64,2.33-201.12l.93-5.36c0-21.89-20.64-39.46-42.52-38.92Z"/>
    <path class="cls-1" d="M1537.56,966.45c0-21.89-20.64-39.46-42.52-38.92-.25,0-.49.01-.74.02-11.64.3-22.75,5.66-30.44,13.93-27.54-20.82-61.99-33.03-99.07-33.03-44.41,0-85.6,18.02-115.2,47.62-29.6,29.61-47.62,70.15-47.62,115.2s18.02,86.24,47.62,115.85c29.6,29.6,70.15,47.63,115.2,47.63,33.72,0,65.28-10.1,91.44-27.6,6.23,15.03,22.26,25.76,39.21,25.76,21.72,0,39.33-17.6,39.35-39.32,0,0,1.35-8.35-.49-20.66-4.21-28.19-6.5-56.59-6.87-85.01.55-5.48.83-11.03.83-16.64,0-4.42-.18-8.8-.52-13.13.98-28.9,3.94-57.75,8.89-86.34l.93-5.35ZM1432.6,1136.9c-16.63,16.63-39.58,26.92-65.71,26.92s-48.29-10.29-64.92-26.92c-16.63-16.62-26.91-39.58-26.91-65.7s10.29-48.29,26.91-64.92c16.63-16.63,39.58-26.91,64.92-26.91s49.08,10.29,65.71,26.91c16.63,16.63,26.91,39.58,26.91,64.92s-10.29,49.08-26.91,65.7Z"/>
    <path class="cls-1" d="M1168.35,880.22c-15.29,0-27.69-12.4-27.69-27.69,0-10.39,5.72-19.44,14.19-24.18-.68-.03-1.37-.05-2.07-.05-22.2,0-40.19,17.99-40.19,40.19s17.99,40.19,40.19,40.19,40.19-17.99,40.19-40.19c0-1.03-.04-2.06-.12-3.07-4.64,8.8-13.87,14.8-24.51,14.8Z"/>
    <g>
      <path class="cls-2" d="M959.45,700.44c-112.57-55.69-205.02,7.61-253.45,98.31-24.76,46.37-20.42,103.12,5.35,151.63,7.85,14.78,22.47,24.68,39.09,26.64,15.41,1.82,31.41,1.66,47.4-1.52,92.61-18.4,136.68-49.8,253.75-74.24,15.85-3.31,27.01-17.65,26.27-33.83-3.2-70.39-48.69-132.49-118.42-166.99Z"/>
      <path class="cls-2" d="M1112.94,692.36l-36.86,30.05c-9.08,7.4-12.41,19.78-8.27,30.74h0c4.39,11.63,16.09,18.77,28.46,17.45,13.67-1.47,31.8-5.83,48.47-17.6,4.11-2.91,7.2-7.06,8.81-11.83,3.29-9.74,6.32-27.46-6.02-44.42-8.09-11.12-23.92-13.08-34.58-4.39Z"/>
      <path class="cls-2" d="M679.25,1009.86l20.78-20.36c5.12-5.01,6.46-12.74,3.32-19.18h0c-3.32-6.84-10.85-10.54-18.3-9.04-8.24,1.65-19.05,5.32-28.54,13.42-2.34,2-3.99,4.7-4.71,7.69-1.46,6.12-2.32,17.08,6.14,26.72,5.55,6.32,15.3,6.64,21.31.75Z"/>
      <path class="cls-2" d="M607.14,907.65c11.2-2.5,31.19-7.88,48.32-17.38,9.9-5.49,15.05-17.09,12-27.99-.17-.61-.36-1.22-.58-1.84-3.29-9.25-12.18-15.34-21.99-15.85l-39.99-2.08c-13.96-.73-25.04,11.43-23.2,25.29,1.38,10.43,4.53,22.56,11.24,33.77,2.92,4.88,8.65,7.32,14.2,6.08Z"/>
      <path class="cls-2" d="M603.16,742.92c13.61,4.08,44.37,12.56,70.24,14.41,13.88.99,27.29-6.4,33.19-19,2.43-5.19,3.54-11.13,1.63-17.46,0,0-8.07-26.04-56.36-48.39-3.95-1.83-8.42-2.19-12.62-1.05-15.49,4.23-51.45,18.75-44.81,61.39.74,4.77,4.11,8.71,8.73,10.09Z"/>
      <path class="cls-2" d="M764.68,622.75l32.67,33.2c8.05,8.18,20.42,10.29,30.72,5.26h0c10.94-5.35,16.84-17.41,14.42-29.34-2.68-13.2-8.59-30.48-21.58-45.65-3.21-3.75-7.54-6.37-12.34-7.51-9.8-2.31-27.35-3.65-42.76,9.92-10.11,8.9-10.57,24.52-1.13,34.12Z"/>
      <path class="cls-2" d="M1030.65,615.29c-6.24,11.46-20.75,36.88-35.96,54.85-8.16,9.64-20.78,13.57-31.63,9.26-4.47-1.77-8.54-4.9-10.92-10.22,0,0-9.69-22.05,7.98-67.79,1.44-3.74,4.05-6.88,7.34-8.86,12.13-7.31,42.96-21.26,62.96,10.58,2.24,3.56,2.36,8.29.24,12.18Z"/>
    </g>
    <path class="cls-1" d="M942.81,1233.87c-13.03.16-22.28-1.67-27.74-5.28-5.46-3.61-8.81-8.46-10.04-14.66-1.23-6.21-1.85-12.59-1.85-19.2v-183.52c0-7.07.61-13.75,1.85-20.03,1.23-6.27,4.67-11.87,10.3-16.71,5.63-4.84,14.97-8.53,28-11.13,12.33-2.46,21.22-2.62,26.68-.56,5.45,2.06,8.9,5,10.3,8.86,1.41,3.86-1.67,10.37,1.32,6.22,2.99-4.14,7.13-8.67,12.42-13.51,5.28-4.83,11.7-9.23,19.28-13.21,7.57-3.97,16.29-6.8,26.15-8.55,3.87-.69,8.19-1.22,12.94-1.59,4.75-.37,9.68-.31,14.79.18,5.1.49,9.77,1.51,14,3.07,4.23,1.56,7.66,3.8,10.3,6.75,2.64,2.95,3.96,6.93,3.96,12.03,0,13.07-3.35,25.39-10.04,36.45-6.69,11.07-15.15,17.9-25.36,19.92-5.99,1.18-17.17.15-18.75-.78-1.58-.92-11.54-2.12-17.17-.9-5.28,1.14-10.31,2.96-15.06,5.44-4.75,2.49-9.16,5.72-13.21,9.68-4.05,3.97-7.22,8.47-9.51,13.5-2.29,5.05-3.43,10.47-3.43,16.32,0,41.9,0,83.79,0,125.69,0,7.6-.62,15.01-1.85,22.14-1.23,7.14-4.67,12.87-10.3,17-5.63,4.13-14.97,6.2-28,6.36Z"/>
  </g>
</svg>